<?xml version="1.0" encoding="utf-8"?>
<!-- Generator: Adobe Illustrator 25.3.0, SVG Export Plug-In . SVG Version: 6.00 Build 0)  -->
<svg version="1.1" id="Layer_1" xmlns="http://www.w3.org/2000/svg" xmlns:xlink="http://www.w3.org/1999/xlink" x="0px" y="0px"
	 viewBox="0 0 287.78 215.59" style="enable-background:new 0 0 287.78 215.59;" xml:space="preserve">
<style type="text/css">
	.st0{fill:#FFFFFF;}
</style>
<g>
	<path class="st0" d="M287.63,23.69c-95.94,0-191.57,0-287.5,0c0-7.85,0-15.64,0-23.69c95.74,0,191.54,0,287.5,0
		C287.63,7.89,287.63,15.76,287.63,23.69z"/>
	<path class="st0" d="M0,119.51c0-7.97,0-15.67,0-23.56c95.89,0,191.61,0,287.64,0c0,7.72,0,15.51,0,23.56
		C191.91,119.51,96.11,119.51,0,119.51z"/>
	<path class="st0" d="M287.78,192.05c0,7.93,0,15.63,0,23.53c-95.97,0-191.78,0-287.77,0c0-7.86,0-15.56,0-23.53
		C95.83,192.05,191.64,192.05,287.78,192.05z"/>
</g>
</svg>
